<svg width="512" height="512" viewBox="0 0 512 512" fill="none" xmlns="http://www.w3.org/2000/svg">
<circle cx="256" cy="256" r="256" fill="#FFF9F9"/>
<path d="M171.629 363.798L159.335 376.092C156.139 379.288 151.212 379.288 148.016 376.092L33.3968 261.473C30.2011 258.277 30.2011 253.35 33.3968 250.154L148.016 135.535C151.212 132.339 156.139 132.339 159.335 135.535L171.629 147.83C174.825 151.026 174.825 155.953 171.629 159.149L74.9563 255.822L171.629 352.495C174.825 355.69 174.825 360.618 171.629 363.813V363.798ZM316.993 101.343L225.248 418.896C224.02 423.083 219.596 425.539 215.66 424.311L200.406 420.123C196.219 418.896 193.763 414.472 194.991 410.285L286.737 92.732C287.965 88.5446 292.388 86.0888 296.324 87.3167L311.578 91.5041C315.765 92.732 318.221 97.1556 316.993 101.343V101.343ZM478.603 261.473L363.984 376.092C360.788 379.288 355.861 379.288 352.665 376.092L340.371 363.798C337.175 360.602 337.175 355.675 340.371 352.479L437.044 255.806L340.371 159.133C337.175 155.937 337.175 151.01 340.371 147.814L352.665 135.519C355.861 132.324 360.788 132.324 363.984 135.519L478.603 250.139C481.799 253.334 481.799 258.262 478.603 261.457V261.473Z" fill="#111111"/>
</svg>
